<svg fill="red" xmlns="http://www.w3.org/2000/svg" height="48" viewBox="0 -960 960 960" width="48"><path d="M479.825-272Q497-272 508.5-283.325q11.5-11.324 11.5-28Q520-328 508.675-340q-11.324-12-28.5-12Q463-352 451.5-340.113T440-312.175Q440-295 451.325-283.5q11.324 11.5 28.5 11.5Zm.157-158Q495-430 506-440.487q11-10.488 11-25.513v-191q0-15.45-10.775-26.225Q495.45-694 480-694q-15.025 0-25.513 10.775Q444-672.45 444-657v191q0 15.025 10.482 25.513Q464.965-430 479.982-430ZM354-104q-14.94 0-29.104-6.087T301-126L126-301q-9.913-9.807-15.957-23.689Q104-338.571 104-354v-253q0-14.571 6.043-28.402Q116.087-649.232 126-659l175-175q9.807-9.913 23.689-15.957Q338.571-856 354-856h253q14.571 0 28.402 6.043Q649.232-843.913 659-834l175 175q9.913 9.768 15.957 23.598Q856-621.571 856-607v253q0 14.94-6.087 29.104T834-301L659-126q-9.768 9.913-23.598 15.957Q621.571-104 607-104H354Z"/></svg>